<?xml version="1.0" encoding="UTF-8"?>
<svg xmlns="http://www.w3.org/2000/svg" xmlns:xlink="http://www.w3.org/1999/xlink" width="30px" height="30px" viewBox="0 0 30 30" version="1.1">
<defs>
<filter id="alpha" filterUnits="objectBoundingBox" x="0%" y="0%" width="100%" height="100%">
  <feColorMatrix type="matrix" in="SourceGraphic" values="0 0 0 0 1 0 0 0 0 1 0 0 0 0 1 0 0 0 1 0"/>
</filter>
<mask id="mask0">
  <g filter="url(#alpha)">
<rect x="0" y="0" width="30" height="30" style="fill:rgb(0%,0%,0%);fill-opacity:0.6;stroke:none;"/>
  </g>
</mask>
<clipPath id="clip1">
  <rect x="0" y="0" width="30" height="30"/>
</clipPath>
<g id="surface5" clip-path="url(#clip1)">
<path style=" stroke:none;fill-rule:nonzero;fill:rgb(36.470588%,36.862745%,36.862745%);fill-opacity:1;" d="M 24.195312 22.332031 C 23.894531 22.710938 23.574219 23.066406 23.238281 23.398438 C 22.785156 23.84375 22.300781 24.25 21.785156 24.609375 C 19.859375 25.96875 17.542969 26.714844 15.109375 26.714844 C 13.476562 26.714844 11.890625 26.378906 10.40625 25.714844 C 9.949219 25.511719 9.507812 25.28125 9.085938 25.023438 C 8.679688 24.777344 8.28125 24.496094 7.902344 24.195312 C 7.503906 23.878906 7.132812 23.542969 6.785156 23.183594 C 5.007812 21.359375 3.890625 19.007812 3.597656 16.433594 C 3.375 14.492188 3.636719 12.566406 4.347656 10.804688 C 4.632812 10.097656 4.984375 9.417969 5.410156 8.769531 C 5.605469 8.472656 5.816406 8.183594 6.039062 7.902344 C 8.253906 5.117188 11.5625 3.519531 15.125 3.519531 C 17.769531 3.519531 20.261719 4.390625 22.332031 6.039062 C 22.425781 6.109375 22.503906 6.175781 22.578125 6.238281 C 22.761719 6.390625 22.945312 6.554688 23.132812 6.734375 C 23.160156 6.761719 23.183594 6.785156 23.210938 6.808594 C 25.25 8.789062 26.480469 11.445312 26.683594 14.292969 C 26.894531 17.199219 26.007812 20.050781 24.195312 22.332031 Z M 24.195312 22.332031 "/>
</g>
<mask id="mask1">
  <g filter="url(#alpha)">
<rect x="0" y="0" width="30" height="30" style="fill:rgb(0%,0%,0%);fill-opacity:0.101961;stroke:none;"/>
  </g>
</mask>
<clipPath id="clip2">
  <rect x="0" y="0" width="30" height="30"/>
</clipPath>
<g id="surface8" clip-path="url(#clip2)">
<path style=" stroke:none;fill-rule:nonzero;fill:rgb(0%,0%,0%);fill-opacity:1;" d="M 22.40625 23.710938 C 21.816406 24.21875 21.179688 24.660156 20.507812 25.03125 C 18.808594 25.972656 16.882812 26.480469 14.875 26.480469 C 13.242188 26.480469 11.65625 26.144531 10.171875 25.480469 C 9.714844 25.277344 9.273438 25.046875 8.851562 24.789062 C 8.445312 24.542969 8.046875 24.261719 7.667969 23.960938 C 7.359375 23.714844 7.0625 23.457031 6.785156 23.183594 C 4.871094 21.328125 3.667969 18.886719 3.363281 16.199219 C 3.09375 13.871094 3.527344 11.570312 4.589844 9.535156 C 4.882812 8.976562 5.222656 8.433594 5.609375 7.921875 C 5.535156 8.199219 5.464844 8.484375 5.410156 8.769531 C 5.363281 9.003906 5.324219 9.238281 5.289062 9.472656 C 5.289062 9.476562 5.289062 9.476562 5.289062 9.476562 C 5.203125 10.082031 5.160156 10.703125 5.160156 11.332031 C 5.160156 16.601562 8.28125 21.144531 12.773438 23.210938 C 12.980469 23.304688 13.1875 23.394531 13.398438 23.476562 C 14.890625 24.070312 16.519531 24.398438 18.222656 24.398438 C 19.132812 24.398438 20.019531 24.304688 20.875 24.125 C 21.398438 24.019531 21.910156 23.878906 22.40625 23.710938 Z M 22.40625 23.710938 "/>
</g>
</defs>
<g id="surface1">
<use xlink:href="#surface5" mask="url(#mask0)"/>
<path style=" stroke:none;fill-rule:nonzero;fill:rgb(93.72549%,93.333333%,80.784314%);fill-opacity:1;" d="M 6.726562 21.5 C 6.765625 21.117188 7.121094 20.886719 7.460938 20.832031 C 8.324219 20.699219 9.015625 21.308594 9.640625 21.765625 C 10.402344 22.316406 11.191406 23.023438 12.132812 23.273438 C 12.417969 23.351562 12.695312 23.34375 12.859375 23.121094 C 13.027344 22.890625 12.976562 22.6875 12.824219 22.40625 C 12.316406 21.480469 11.46875 20.765625 10.695312 20.089844 C 10.007812 19.492188 9.246094 18.945312 8.617188 18.28125 C 8.285156 17.933594 7.949219 17.546875 7.726562 17.113281 C 7.535156 16.742188 7.316406 16.09375 7.824219 15.773438 C 9.035156 15.007812 10.296875 16.292969 11.0625 16.976562 C 11.601562 17.457031 12.160156 17.914062 12.730469 18.351562 C 13.464844 18.914062 14.238281 19.464844 15.136719 19.746094 C 15.683594 19.917969 16.539062 20.019531 17.074219 19.59375 C 17.589844 19.1875 17.027344 18.488281 16.734375 18.203125 C 16.21875 17.707031 15.617188 17.3125 15.019531 16.929688 C 14.421875 16.542969 13.855469 16.140625 13.289062 15.714844 C 12.476562 15.101562 11.632812 14.519531 10.859375 13.863281 C 10.273438 13.367188 9.679688 12.839844 9.265625 12.179688 C 8.992188 11.742188 8.699219 11.132812 8.957031 10.566406 C 9.207031 10.019531 9.789062 9.710938 10.335938 9.761719 C 11.503906 9.875 12.464844 10.839844 13.28125 11.566406 C 14.574219 12.714844 15.949219 13.851562 17.511719 14.621094 C 18.007812 14.867188 18.585938 15.097656 19.167969 15.082031 C 19.324219 15.078125 19.546875 15.058594 19.570312 14.855469 C 19.589844 14.695312 19.554688 14.53125 19.507812 14.386719 C 19.5 14.355469 19.484375 14.300781 19.46875 14.261719 C 19.105469 13.65625 18.492188 13.183594 18.011719 12.6875 C 17.417969 12.070312 16.75 11.4375 16.371094 10.640625 C 16.253906 10.394531 16.152344 10.050781 16.304688 9.761719 C 16.480469 9.429688 16.820312 9.289062 17.160156 9.261719 C 17.894531 9.199219 18.4375 9.550781 19.007812 9.925781 C 19.320312 10.132812 19.648438 10.351562 20.035156 10.398438 C 20.167969 10.414062 20.722656 10.511719 20.871094 10.414062 C 20.871094 10.410156 20.871094 10.40625 20.871094 10.402344 C 20.855469 10.351562 20.839844 10.300781 20.816406 10.253906 C 20.761719 10.144531 20.683594 10.042969 20.609375 9.949219 C 20.417969 9.710938 20.199219 9.492188 19.96875 9.292969 C 19.519531 8.90625 19.007812 8.601562 18.523438 8.261719 C 18.011719 7.898438 17.4375 7.492188 17.117188 6.925781 C 16.847656 6.453125 16.734375 5.730469 17.230469 5.265625 C 17.683594 4.839844 18.375 4.945312 18.863281 5.082031 C 19.449219 5.246094 19.910156 5.546875 20.390625 5.894531 C 20.679688 6.105469 20.976562 6.328125 21.316406 6.449219 C 21.464844 6.5 21.8125 6.589844 22.011719 6.492188 C 21.996094 6.480469 21.980469 6.464844 21.964844 6.453125 C 21.894531 6.390625 21.820312 6.332031 21.734375 6.261719 C 19.765625 4.699219 17.398438 3.871094 14.890625 3.871094 C 11.507812 3.871094 8.363281 5.386719 6.265625 8.03125 C 4.433594 10.335938 3.609375 13.210938 3.945312 16.132812 C 4.257812 18.882812 5.5625 21.359375 7.628906 23.167969 C 7.4375 22.953125 7.257812 22.730469 7.09375 22.496094 C 6.898438 22.210938 6.691406 21.878906 6.726562 21.5 Z M 6.726562 21.5 "/>
<path style=" stroke:none;fill-rule:nonzero;fill:rgb(81.960784%,80.784314%,74.901961%);fill-opacity:1;" d="M 22.496094 6.925781 C 22.492188 6.925781 22.492188 6.921875 22.492188 6.921875 C 21.730469 7.539062 20.78125 7.042969 20.15625 6.597656 C 19.515625 6.148438 18.878906 5.644531 18.023438 5.648438 C 17.679688 5.652344 17.460938 5.851562 17.566406 6.226562 C 17.675781 6.609375 17.964844 6.902344 18.253906 7.152344 C 19.203125 7.972656 20.394531 8.496094 21.171875 9.519531 C 21.4375 9.867188 21.773438 10.460938 21.304688 10.882812 C 20.8125 11.320312 19.820312 11.148438 19.339844 10.929688 C 18.980469 10.765625 18.664062 10.542969 18.335938 10.332031 C 18.058594 10.15625 17.742188 9.941406 17.394531 9.933594 C 17.226562 9.925781 17.042969 9.9375 16.917969 10 C 16.90625 10.003906 16.902344 10.007812 16.898438 10.007812 C 16.898438 10.011719 16.898438 10.015625 16.898438 10.019531 C 16.90625 9.976562 16.914062 10.101562 16.910156 10.105469 C 16.925781 10.167969 16.949219 10.234375 16.976562 10.292969 C 17.027344 10.402344 17.121094 10.5625 17.207031 10.679688 C 17.457031 11.042969 17.746094 11.371094 18.039062 11.691406 C 18.617188 12.316406 19.25 12.890625 19.804688 13.535156 C 20.316406 14.132812 20.546875 15.496094 19.425781 15.726562 C 18.839844 15.847656 18.21875 15.671875 17.699219 15.472656 C 16.890625 15.164062 16.136719 14.703125 15.441406 14.207031 C 14.246094 13.347656 13.175781 12.347656 12.027344 11.425781 C 11.578125 11.066406 11.09375 10.683594 10.527344 10.507812 C 10.191406 10.40625 9.488281 10.421875 9.53125 10.992188 C 9.570312 11.527344 9.972656 12.035156 10.316406 12.390625 C 11.027344 13.125 11.835938 13.75 12.652344 14.355469 C 13.339844 14.863281 13.996094 15.410156 14.707031 15.882812 C 15.296875 16.273438 15.910156 16.636719 16.480469 17.0625 C 16.980469 17.4375 17.511719 17.863281 17.78125 18.453125 C 18.03125 18.992188 18.03125 19.714844 17.4375 20.125 C 16.03125 21.105469 14.324219 20.308594 13.195312 19.558594 C 12.476562 19.085938 11.792969 18.550781 11.140625 17.992188 C 10.652344 17.578125 10.195312 17.125 9.675781 16.75 C 9.425781 16.566406 9.160156 16.378906 8.859375 16.28125 C 8.691406 16.230469 8.351562 16.175781 8.1875 16.304688 C 8.128906 16.351562 8.230469 16.582031 8.285156 16.679688 C 8.410156 16.910156 8.5625 17.125 8.726562 17.328125 C 9.238281 17.960938 9.902344 18.480469 10.566406 19.042969 C 11.417969 19.769531 12.300781 20.503906 12.992188 21.394531 C 13.429688 21.953125 13.996094 22.863281 13.300781 23.585938 C 12.609375 24.304688 11.675781 23.933594 11.015625 23.554688 C 10.128906 23.046875 9.355469 22.382812 8.5 21.835938 C 8.234375 21.664062 7.941406 21.480469 7.660156 21.488281 C 7.59375 21.492188 7.453125 21.511719 7.429688 21.523438 C 7.414062 21.527344 7.398438 21.535156 7.390625 21.542969 C 7.390625 21.582031 7.390625 21.570312 7.410156 21.628906 C 7.53125 21.972656 7.804688 22.28125 8.042969 22.554688 C 8.351562 22.910156 8.683594 23.238281 9.019531 23.5625 C 9.328125 23.867188 9.894531 24.316406 10.160156 24.832031 C 10.242188 24.871094 10.324219 24.910156 10.410156 24.945312 C 11.820312 25.574219 13.324219 25.894531 14.875 25.894531 C 18.257812 25.894531 21.402344 24.378906 23.503906 21.734375 C 27.070312 17.246094 26.636719 10.878906 22.496094 6.925781 Z M 22.496094 6.925781 "/>
<use xlink:href="#surface8" mask="url(#mask1)"/>
<path style=" stroke:none;fill-rule:nonzero;fill:rgb(36.470588%,36.862745%,36.862745%);fill-opacity:1;" d="M 26.449219 14.058594 C 26.253906 11.320312 25.109375 8.761719 23.210938 6.808594 C 23.109375 6.703125 23.003906 6.601562 22.898438 6.5 C 22.710938 6.320312 22.527344 6.15625 22.339844 6.003906 C 22.269531 5.941406 22.1875 5.875 22.097656 5.804688 C 20.027344 4.15625 17.535156 3.285156 14.890625 3.285156 C 11.328125 3.285156 8.019531 4.882812 5.804688 7.667969 C 5.738281 7.75 5.671875 7.835938 5.609375 7.921875 C 5.222656 8.433594 4.882812 8.976562 4.589844 9.535156 C 3.527344 11.570312 3.09375 13.871094 3.363281 16.199219 C 3.667969 18.886719 4.871094 21.328125 6.785156 23.183594 C 7.0625 23.457031 7.359375 23.714844 7.667969 23.960938 C 8.046875 24.261719 8.445312 24.542969 8.851562 24.789062 C 9.273438 25.046875 9.714844 25.277344 10.171875 25.480469 C 11.65625 26.144531 13.242188 26.480469 14.875 26.480469 C 16.882812 26.480469 18.808594 25.972656 20.507812 25.03125 C 21.179688 24.660156 21.816406 24.21875 22.40625 23.710938 C 22.96875 23.230469 23.488281 22.691406 23.960938 22.097656 C 25.773438 19.816406 26.660156 16.964844 26.449219 14.058594 Z M 3.945312 16.132812 C 3.9375 16.070312 3.929688 16.011719 3.925781 15.949219 C 3.921875 15.90625 3.914062 15.859375 3.914062 15.816406 C 3.910156 15.777344 3.90625 15.742188 3.902344 15.707031 C 3.902344 15.675781 3.898438 15.644531 3.898438 15.613281 C 3.894531 15.605469 3.894531 15.59375 3.894531 15.585938 C 3.894531 15.554688 3.890625 15.527344 3.890625 15.496094 C 3.878906 15.285156 3.871094 15.074219 3.871094 14.863281 C 3.871094 14.839844 3.871094 14.816406 3.871094 14.792969 C 3.871094 14.769531 3.871094 14.75 3.871094 14.726562 C 3.871094 14.699219 3.875 14.675781 3.875 14.648438 C 3.875 14.644531 3.875 14.636719 3.875 14.628906 C 3.875 14.589844 3.875 14.546875 3.878906 14.503906 C 3.878906 14.5 3.878906 14.492188 3.878906 14.488281 C 3.878906 14.457031 3.878906 14.429688 3.882812 14.398438 C 3.882812 14.394531 3.882812 14.390625 3.882812 14.386719 C 3.882812 14.355469 3.882812 14.324219 3.886719 14.292969 C 3.886719 14.253906 3.890625 14.210938 3.894531 14.171875 C 3.894531 14.164062 3.894531 14.15625 3.894531 14.144531 C 3.898438 14.117188 3.898438 14.085938 3.902344 14.054688 C 3.902344 14.019531 3.90625 13.980469 3.910156 13.945312 C 3.910156 13.945312 3.910156 13.941406 3.910156 13.9375 C 3.914062 13.890625 3.917969 13.84375 3.921875 13.796875 C 3.929688 13.746094 3.933594 13.695312 3.9375 13.644531 C 3.949219 13.550781 3.960938 13.457031 3.972656 13.367188 C 3.980469 13.320312 3.984375 13.273438 3.992188 13.226562 C 4 13.183594 4.007812 13.136719 4.015625 13.09375 C 4.023438 13.035156 4.035156 12.972656 4.042969 12.914062 L 4.058594 12.839844 C 4.0625 12.816406 4.066406 12.789062 4.074219 12.765625 C 4.078125 12.742188 4.082031 12.714844 4.089844 12.6875 C 4.09375 12.664062 4.097656 12.636719 4.105469 12.613281 C 4.105469 12.597656 4.109375 12.582031 4.113281 12.566406 C 4.121094 12.539062 4.125 12.511719 4.132812 12.484375 C 4.136719 12.457031 4.144531 12.429688 4.148438 12.402344 C 4.15625 12.367188 4.164062 12.335938 4.171875 12.300781 C 4.183594 12.261719 4.195312 12.21875 4.203125 12.175781 C 4.214844 12.144531 4.222656 12.109375 4.230469 12.074219 C 4.230469 12.070312 4.234375 12.066406 4.234375 12.0625 L 4.234375 12.058594 C 4.28125 11.878906 4.335938 11.699219 4.394531 11.519531 C 4.40625 11.476562 4.421875 11.429688 4.4375 11.386719 C 4.484375 11.25 4.53125 11.113281 4.582031 10.980469 C 4.582031 10.976562 4.585938 10.972656 4.585938 10.96875 C 4.601562 10.933594 4.613281 10.894531 4.628906 10.859375 C 4.648438 10.8125 4.664062 10.769531 4.683594 10.726562 C 4.710938 10.652344 4.742188 10.582031 4.773438 10.507812 C 4.789062 10.472656 4.804688 10.4375 4.820312 10.40625 C 4.835938 10.371094 4.851562 10.335938 4.867188 10.300781 C 4.886719 10.261719 4.902344 10.222656 4.921875 10.183594 C 4.941406 10.144531 4.957031 10.105469 4.976562 10.066406 C 4.996094 10.027344 5.015625 9.988281 5.035156 9.949219 C 5.054688 9.914062 5.070312 9.882812 5.089844 9.847656 C 5.109375 9.804688 5.132812 9.757812 5.15625 9.714844 C 5.175781 9.679688 5.199219 9.640625 5.21875 9.605469 C 5.238281 9.566406 5.257812 9.53125 5.28125 9.492188 C 5.28125 9.488281 5.285156 9.484375 5.285156 9.480469 C 5.289062 9.480469 5.289062 9.476562 5.289062 9.476562 L 5.34375 9.378906 C 5.375 9.324219 5.410156 9.265625 5.445312 9.210938 C 5.453125 9.195312 5.460938 9.183594 5.46875 9.171875 C 5.527344 9.074219 5.585938 8.980469 5.648438 8.886719 C 5.667969 8.851562 5.691406 8.820312 5.710938 8.789062 C 5.734375 8.757812 5.753906 8.722656 5.777344 8.691406 C 5.800781 8.660156 5.820312 8.628906 5.84375 8.597656 C 5.867188 8.566406 5.886719 8.53125 5.910156 8.5 C 5.925781 8.480469 5.941406 8.460938 5.953125 8.4375 C 6.007812 8.363281 6.0625 8.292969 6.121094 8.21875 C 6.144531 8.1875 6.167969 8.15625 6.191406 8.125 C 6.214844 8.09375 6.238281 8.0625 6.265625 8.03125 C 8.363281 5.386719 11.507812 3.871094 14.890625 3.871094 C 17.398438 3.871094 19.765625 4.699219 21.734375 6.261719 C 21.820312 6.332031 21.894531 6.390625 21.964844 6.453125 C 21.980469 6.464844 21.996094 6.480469 22.011719 6.492188 C 21.8125 6.589844 21.464844 6.5 21.316406 6.449219 C 20.976562 6.328125 20.679688 6.105469 20.390625 5.894531 C 19.910156 5.546875 19.449219 5.246094 18.863281 5.082031 C 18.375 4.945312 17.683594 4.839844 17.230469 5.265625 C 16.734375 5.730469 16.847656 6.453125 17.117188 6.925781 C 17.4375 7.492188 18.011719 7.898438 18.523438 8.261719 C 19.007812 8.601562 19.519531 8.90625 19.96875 9.292969 C 20.199219 9.492188 20.417969 9.710938 20.609375 9.949219 C 20.683594 10.042969 20.761719 10.144531 20.816406 10.253906 C 20.839844 10.300781 20.855469 10.351562 20.871094 10.402344 C 20.871094 10.40625 20.871094 10.410156 20.871094 10.414062 C 20.722656 10.511719 20.167969 10.414062 20.035156 10.398438 C 19.648438 10.351562 19.320312 10.132812 19.007812 9.925781 C 18.4375 9.550781 17.894531 9.199219 17.160156 9.261719 C 16.820312 9.289062 16.480469 9.429688 16.304688 9.761719 C 16.152344 10.050781 16.253906 10.394531 16.371094 10.640625 C 16.75 11.4375 17.417969 12.070312 18.011719 12.6875 C 18.492188 13.183594 19.105469 13.65625 19.46875 14.261719 C 19.484375 14.300781 19.5 14.355469 19.507812 14.386719 C 19.554688 14.53125 19.589844 14.695312 19.570312 14.855469 C 19.546875 15.058594 19.324219 15.078125 19.167969 15.082031 C 18.585938 15.097656 18.007812 14.867188 17.511719 14.621094 C 15.949219 13.851562 14.574219 12.714844 13.28125 11.566406 C 12.464844 10.839844 11.503906 9.875 10.335938 9.761719 C 9.789062 9.710938 9.207031 10.019531 8.957031 10.566406 C 8.699219 11.132812 8.992188 11.742188 9.265625 12.179688 C 9.679688 12.839844 10.273438 13.367188 10.855469 13.863281 C 11.632812 14.519531 12.476562 15.101562 13.289062 15.714844 C 13.855469 16.140625 14.421875 16.542969 15.019531 16.929688 C 15.617188 17.3125 16.21875 17.707031 16.734375 18.203125 C 17.027344 18.488281 17.589844 19.1875 17.074219 19.59375 C 16.539062 20.019531 15.683594 19.917969 15.136719 19.746094 C 14.238281 19.464844 13.464844 18.914062 12.730469 18.351562 C 12.160156 17.914062 11.601562 17.457031 11.0625 16.976562 C 10.296875 16.292969 9.035156 15.007812 7.824219 15.773438 C 7.316406 16.09375 7.535156 16.742188 7.726562 17.113281 C 7.949219 17.546875 8.285156 17.933594 8.617188 18.28125 C 9.246094 18.945312 10.007812 19.492188 10.695312 20.089844 C 11.46875 20.765625 12.316406 21.480469 12.824219 22.40625 C 12.976562 22.6875 13.027344 22.890625 12.859375 23.121094 C 12.832031 23.15625 12.804688 23.183594 12.773438 23.210938 C 12.761719 23.21875 12.75 23.226562 12.738281 23.238281 C 12.714844 23.253906 12.6875 23.265625 12.660156 23.277344 C 12.660156 23.277344 12.65625 23.277344 12.65625 23.28125 C 12.628906 23.289062 12.601562 23.296875 12.570312 23.304688 C 12.539062 23.3125 12.507812 23.316406 12.476562 23.316406 C 12.460938 23.320312 12.445312 23.320312 12.429688 23.320312 C 12.335938 23.320312 12.234375 23.300781 12.132812 23.273438 C 11.191406 23.023438 10.402344 22.316406 9.640625 21.765625 C 9.015625 21.308594 8.324219 20.699219 7.460938 20.832031 C 7.441406 20.835938 7.425781 20.839844 7.40625 20.84375 C 7.394531 20.847656 7.378906 20.847656 7.363281 20.851562 C 7.363281 20.851562 7.359375 20.851562 7.359375 20.855469 C 7.355469 20.855469 7.351562 20.855469 7.351562 20.855469 C 7.347656 20.855469 7.347656 20.859375 7.34375 20.859375 C 7.34375 20.859375 7.34375 20.859375 7.339844 20.859375 C 7.332031 20.863281 7.320312 20.863281 7.308594 20.867188 C 7.304688 20.871094 7.296875 20.871094 7.289062 20.875 C 7.285156 20.875 7.285156 20.875 7.285156 20.878906 C 7.273438 20.878906 7.261719 20.886719 7.25 20.890625 C 7.25 20.890625 7.246094 20.890625 7.246094 20.890625 C 7.246094 20.890625 7.242188 20.890625 7.238281 20.894531 C 7.226562 20.898438 7.210938 20.902344 7.199219 20.910156 C 7.164062 20.925781 7.128906 20.941406 7.097656 20.960938 C 7.089844 20.964844 7.082031 20.96875 7.078125 20.972656 C 7.0625 20.984375 7.050781 20.992188 7.039062 21 C 7.035156 21 7.035156 21.003906 7.03125 21.003906 C 7.03125 21.007812 7.027344 21.007812 7.027344 21.007812 C 7.011719 21.019531 6.996094 21.027344 6.984375 21.039062 C 6.972656 21.050781 6.960938 21.0625 6.949219 21.070312 C 6.9375 21.082031 6.929688 21.089844 6.921875 21.097656 C 6.917969 21.101562 6.910156 21.105469 6.90625 21.113281 C 6.898438 21.121094 6.890625 21.132812 6.878906 21.140625 C 6.871094 21.152344 6.863281 21.164062 6.851562 21.175781 C 6.851562 21.175781 6.851562 21.179688 6.851562 21.179688 C 6.84375 21.1875 6.839844 21.195312 6.835938 21.199219 C 6.832031 21.207031 6.828125 21.210938 6.828125 21.214844 C 6.820312 21.222656 6.816406 21.230469 6.808594 21.242188 C 6.804688 21.25 6.800781 21.253906 6.796875 21.261719 C 6.792969 21.269531 6.789062 21.277344 6.789062 21.285156 C 6.78125 21.300781 6.773438 21.316406 6.765625 21.332031 C 6.761719 21.339844 6.761719 21.351562 6.757812 21.363281 C 6.753906 21.371094 6.753906 21.375 6.75 21.382812 C 6.75 21.386719 6.746094 21.394531 6.746094 21.402344 C 6.746094 21.402344 6.742188 21.402344 6.742188 21.40625 C 6.742188 21.414062 6.742188 21.421875 6.738281 21.429688 C 6.738281 21.441406 6.734375 21.453125 6.730469 21.464844 C 6.730469 21.476562 6.730469 21.488281 6.726562 21.5 C 6.691406 21.878906 6.898438 22.210938 7.09375 22.496094 C 7.257812 22.730469 7.4375 22.953125 7.628906 23.167969 C 5.5625 21.359375 4.257812 18.882812 3.945312 16.132812 Z M 23.503906 21.734375 C 23.480469 21.761719 23.457031 21.792969 23.433594 21.820312 C 23.425781 21.832031 23.414062 21.847656 23.402344 21.859375 C 23.390625 21.875 23.378906 21.886719 23.367188 21.902344 C 23.320312 21.957031 23.273438 22.011719 23.226562 22.066406 C 23.183594 22.117188 23.140625 22.167969 23.097656 22.214844 C 23.09375 22.222656 23.089844 22.226562 23.085938 22.230469 C 23.0625 22.257812 23.039062 22.28125 23.011719 22.308594 C 23 22.324219 22.988281 22.335938 22.976562 22.347656 C 22.964844 22.363281 22.953125 22.375 22.941406 22.386719 C 22.894531 22.4375 22.847656 22.488281 22.800781 22.535156 C 22.792969 22.542969 22.785156 22.554688 22.777344 22.5625 C 22.730469 22.609375 22.683594 22.65625 22.632812 22.703125 C 22.585938 22.753906 22.539062 22.796875 22.492188 22.84375 C 22.386719 22.945312 22.285156 23.039062 22.179688 23.132812 C 22.125 23.179688 22.070312 23.226562 22.019531 23.273438 C 21.96875 23.316406 21.914062 23.359375 21.863281 23.402344 C 21.863281 23.402344 21.859375 23.40625 21.855469 23.410156 C 21.804688 23.449219 21.753906 23.492188 21.707031 23.53125 C 21.703125 23.53125 21.703125 23.53125 21.703125 23.53125 C 21.695312 23.539062 21.6875 23.546875 21.675781 23.550781 C 21.625 23.59375 21.574219 23.632812 21.523438 23.671875 C 21.511719 23.679688 21.5 23.691406 21.488281 23.699219 C 21.476562 23.707031 21.464844 23.71875 21.449219 23.726562 C 21.425781 23.742188 21.402344 23.761719 21.378906 23.78125 C 21.367188 23.789062 21.359375 23.792969 21.347656 23.800781 C 21.34375 23.804688 21.339844 23.808594 21.332031 23.8125 C 21.28125 23.847656 21.234375 23.882812 21.183594 23.917969 C 21.15625 23.9375 21.125 23.957031 21.097656 23.976562 C 21.070312 24 21.039062 24.019531 21.007812 24.039062 C 20.964844 24.070312 20.921875 24.097656 20.875 24.125 C 20.871094 24.128906 20.863281 24.136719 20.855469 24.136719 C 20.820312 24.164062 20.78125 24.1875 20.742188 24.210938 C 20.738281 24.214844 20.738281 24.214844 20.734375 24.21875 C 20.695312 24.242188 20.652344 24.269531 20.613281 24.292969 C 20.523438 24.347656 20.4375 24.398438 20.347656 24.449219 C 20.316406 24.46875 20.285156 24.484375 20.25 24.503906 C 20.214844 24.523438 20.179688 24.542969 20.144531 24.5625 C 20.101562 24.585938 20.058594 24.609375 20.015625 24.628906 C 20.011719 24.632812 20.003906 24.636719 20 24.640625 C 19.957031 24.660156 19.917969 24.683594 19.875 24.703125 C 19.839844 24.722656 19.804688 24.738281 19.769531 24.757812 C 19.746094 24.769531 19.722656 24.78125 19.699219 24.792969 C 19.597656 24.839844 19.496094 24.890625 19.390625 24.933594 C 19.363281 24.945312 19.335938 24.960938 19.308594 24.972656 C 19.285156 24.980469 19.265625 24.992188 19.242188 25 C 19.21875 25.011719 19.195312 25.023438 19.171875 25.03125 C 19.167969 25.03125 19.164062 25.035156 19.160156 25.035156 C 19.097656 25.0625 19.03125 25.089844 18.96875 25.113281 C 18.910156 25.136719 18.847656 25.160156 18.785156 25.183594 C 18.777344 25.1875 18.769531 25.191406 18.761719 25.195312 C 18.703125 25.214844 18.644531 25.238281 18.585938 25.257812 C 18.566406 25.265625 18.542969 25.273438 18.523438 25.28125 C 18.480469 25.296875 18.4375 25.308594 18.394531 25.324219 C 18.382812 25.328125 18.375 25.332031 18.367188 25.332031 C 18.359375 25.335938 18.347656 25.339844 18.335938 25.34375 C 18.3125 25.351562 18.285156 25.359375 18.257812 25.371094 C 18.230469 25.378906 18.203125 25.386719 18.175781 25.394531 C 18.144531 25.40625 18.113281 25.414062 18.082031 25.425781 C 18.050781 25.433594 18.019531 25.441406 17.984375 25.453125 C 17.980469 25.453125 17.976562 25.453125 17.976562 25.457031 L 17.972656 25.457031 C 17.96875 25.457031 17.960938 25.460938 17.953125 25.460938 C 17.898438 25.476562 17.84375 25.492188 17.789062 25.507812 C 17.726562 25.523438 17.664062 25.542969 17.601562 25.558594 C 17.574219 25.566406 17.542969 25.570312 17.515625 25.578125 C 17.488281 25.585938 17.460938 25.589844 17.433594 25.597656 C 17.417969 25.601562 17.40625 25.605469 17.390625 25.609375 C 17.28125 25.632812 17.171875 25.65625 17.058594 25.679688 C 17.058594 25.679688 17.054688 25.679688 17.054688 25.679688 C 17.023438 25.6875 16.996094 25.691406 16.96875 25.695312 C 16.929688 25.703125 16.894531 25.710938 16.859375 25.71875 C 16.859375 25.71875 16.855469 25.71875 16.855469 25.71875 C 16.84375 25.71875 16.828125 25.722656 16.816406 25.722656 C 16.769531 25.734375 16.722656 25.742188 16.671875 25.75 C 16.660156 25.75 16.648438 25.753906 16.632812 25.753906 C 16.601562 25.761719 16.574219 25.765625 16.542969 25.769531 C 16.511719 25.773438 16.484375 25.777344 16.453125 25.78125 C 16.441406 25.785156 16.429688 25.785156 16.417969 25.789062 C 16.375 25.792969 16.335938 25.800781 16.292969 25.804688 C 16.28125 25.804688 16.265625 25.808594 16.25 25.808594 C 16.195312 25.816406 16.144531 25.824219 16.089844 25.828125 C 16.070312 25.832031 16.050781 25.832031 16.03125 25.835938 C 15.980469 25.839844 15.929688 25.84375 15.878906 25.847656 C 15.871094 25.851562 15.867188 25.851562 15.859375 25.851562 C 15.84375 25.851562 15.828125 25.855469 15.8125 25.855469 C 15.808594 25.855469 15.804688 25.855469 15.796875 25.855469 C 15.765625 25.859375 15.730469 25.863281 15.695312 25.863281 C 15.6875 25.863281 15.679688 25.867188 15.667969 25.867188 C 15.667969 25.867188 15.667969 25.867188 15.664062 25.867188 C 15.601562 25.871094 15.539062 25.875 15.476562 25.878906 C 15.46875 25.878906 15.464844 25.878906 15.460938 25.878906 C 15.425781 25.882812 15.390625 25.882812 15.355469 25.882812 C 15.339844 25.886719 15.324219 25.886719 15.308594 25.886719 C 15.28125 25.886719 15.25 25.886719 15.21875 25.890625 C 15.195312 25.890625 15.171875 25.890625 15.152344 25.890625 C 15.117188 25.890625 15.085938 25.894531 15.050781 25.894531 C 14.992188 25.894531 14.933594 25.894531 14.875 25.894531 C 13.324219 25.894531 11.820312 25.574219 10.410156 24.945312 C 10.324219 24.910156 10.242188 24.871094 10.160156 24.832031 C 9.894531 24.316406 9.328125 23.867188 9.019531 23.5625 C 8.683594 23.238281 8.355469 22.910156 8.042969 22.554688 C 7.804688 22.28125 7.535156 21.972656 7.410156 21.628906 C 7.390625 21.570312 7.390625 21.582031 7.390625 21.542969 C 7.398438 21.535156 7.414062 21.527344 7.429688 21.523438 C 7.453125 21.511719 7.59375 21.492188 7.660156 21.488281 C 7.675781 21.488281 7.691406 21.488281 7.707031 21.488281 C 7.714844 21.488281 7.726562 21.492188 7.734375 21.492188 C 7.746094 21.492188 7.753906 21.492188 7.765625 21.492188 C 7.765625 21.492188 7.765625 21.492188 7.765625 21.496094 C 7.773438 21.496094 7.785156 21.496094 7.792969 21.5 C 7.820312 21.503906 7.851562 21.511719 7.882812 21.519531 C 7.886719 21.519531 7.894531 21.523438 7.898438 21.523438 C 7.902344 21.523438 7.902344 21.523438 7.902344 21.523438 C 7.90625 21.523438 7.910156 21.523438 7.910156 21.527344 C 7.933594 21.53125 7.953125 21.539062 7.972656 21.546875 C 7.984375 21.550781 8 21.558594 8.011719 21.5625 C 8.027344 21.570312 8.042969 21.574219 8.0625 21.582031 C 8.078125 21.589844 8.089844 21.597656 8.105469 21.605469 C 8.136719 21.621094 8.167969 21.636719 8.199219 21.652344 C 8.214844 21.660156 8.234375 21.671875 8.25 21.679688 C 8.285156 21.699219 8.316406 21.722656 8.351562 21.742188 C 8.367188 21.75 8.382812 21.761719 8.402344 21.773438 C 8.433594 21.792969 8.46875 21.8125 8.5 21.835938 C 9.355469 22.382812 10.128906 23.046875 11.015625 23.554688 C 11.675781 23.933594 12.609375 24.304688 13.300781 23.585938 C 13.316406 23.570312 13.332031 23.554688 13.34375 23.542969 C 13.363281 23.519531 13.382812 23.496094 13.398438 23.476562 C 13.398438 23.476562 13.398438 23.472656 13.398438 23.472656 C 13.410156 23.460938 13.417969 23.449219 13.425781 23.4375 C 13.460938 23.386719 13.492188 23.339844 13.515625 23.289062 C 13.519531 23.277344 13.527344 23.265625 13.53125 23.253906 C 13.566406 23.179688 13.59375 23.101562 13.605469 23.023438 C 13.609375 23.007812 13.613281 22.996094 13.613281 22.980469 C 13.617188 22.964844 13.621094 22.945312 13.621094 22.925781 C 13.621094 22.917969 13.625 22.910156 13.625 22.898438 C 13.625 22.886719 13.625 22.875 13.625 22.859375 C 13.628906 22.84375 13.628906 22.828125 13.628906 22.808594 C 13.628906 22.289062 13.28125 21.765625 12.996094 21.394531 C 12.300781 20.503906 11.417969 19.769531 10.566406 19.042969 C 9.902344 18.480469 9.238281 17.960938 8.730469 17.328125 C 8.566406 17.125 8.414062 16.910156 8.285156 16.679688 C 8.230469 16.582031 8.128906 16.351562 8.191406 16.304688 C 8.351562 16.175781 8.691406 16.230469 8.859375 16.28125 C 9.160156 16.378906 9.425781 16.566406 9.675781 16.75 C 10.195312 17.125 10.652344 17.578125 11.140625 17.992188 C 11.792969 18.550781 12.476562 19.085938 13.195312 19.558594 C 14.324219 20.308594 16.03125 21.105469 17.4375 20.125 C 18.03125 19.714844 18.03125 18.992188 17.78125 18.449219 C 17.511719 17.863281 16.980469 17.4375 16.480469 17.0625 C 15.910156 16.636719 15.296875 16.273438 14.707031 15.882812 C 14 15.410156 13.339844 14.863281 12.652344 14.355469 C 11.835938 13.75 11.027344 13.125 10.320312 12.390625 C 9.972656 12.035156 9.570312 11.527344 9.53125 10.992188 C 9.488281 10.421875 10.191406 10.40625 10.527344 10.507812 C 11.09375 10.683594 11.578125 11.066406 12.027344 11.425781 C 13.175781 12.347656 14.246094 13.347656 15.441406 14.207031 C 16.136719 14.703125 16.890625 15.164062 17.699219 15.472656 C 18.21875 15.671875 18.839844 15.847656 19.425781 15.726562 C 20.546875 15.496094 20.316406 14.132812 19.804688 13.535156 C 19.25 12.890625 18.617188 12.316406 18.042969 11.691406 C 17.746094 11.371094 17.457031 11.042969 17.207031 10.679688 C 17.121094 10.5625 17.027344 10.402344 16.976562 10.292969 C 16.949219 10.234375 16.925781 10.167969 16.910156 10.105469 C 16.914062 10.101562 16.90625 9.976562 16.898438 10.019531 C 16.898438 10.015625 16.898438 10.011719 16.898438 10.007812 C 16.902344 10.007812 16.90625 10.003906 16.917969 10 C 17.042969 9.9375 17.226562 9.925781 17.394531 9.933594 C 17.742188 9.941406 18.058594 10.15625 18.335938 10.332031 C 18.664062 10.542969 18.980469 10.765625 19.339844 10.929688 C 19.820312 11.148438 20.8125 11.320312 21.304688 10.882812 C 21.773438 10.460938 21.4375 9.867188 21.171875 9.519531 C 20.394531 8.496094 19.203125 7.972656 18.253906 7.152344 C 17.964844 6.902344 17.675781 6.609375 17.566406 6.226562 C 17.460938 5.851562 17.679688 5.652344 18.023438 5.648438 C 18.878906 5.644531 19.519531 6.148438 20.15625 6.597656 C 20.78125 7.042969 21.730469 7.539062 22.492188 6.921875 C 22.492188 6.921875 22.492188 6.925781 22.496094 6.925781 C 26.636719 10.878906 27.070312 17.246094 23.503906 21.734375 Z M 23.503906 21.734375 "/>
</g>
</svg>
