<?xml version="1.0" encoding="UTF-8"?>
<svg xmlns="http://www.w3.org/2000/svg" xmlns:xlink="http://www.w3.org/1999/xlink" width="60px" height="60px" viewBox="0 0 60 60" version="1.1">
<defs>
<filter id="alpha" filterUnits="objectBoundingBox" x="0%" y="0%" width="100%" height="100%">
  <feColorMatrix type="matrix" in="SourceGraphic" values="0 0 0 0 1 0 0 0 0 1 0 0 0 0 1 0 0 0 1 0"/>
</filter>
<mask id="mask0">
  <g filter="url(#alpha)">
<rect x="0" y="0" width="60" height="60" style="fill:rgb(0%,0%,0%);fill-opacity:0.6;stroke:none;"/>
  </g>
</mask>
<clipPath id="clip1">
  <rect x="0" y="0" width="60" height="60"/>
</clipPath>
<g id="surface5" clip-path="url(#clip1)">
<path style=" stroke:none;fill-rule:nonzero;fill:rgb(100%,74.509804%,33.333333%);fill-opacity:1;" d="M 52.058594 30 C 52.058594 27.832031 55.984375 25.179688 55.449219 23.179688 C 54.898438 21.113281 50.15625 20.78125 49.109375 18.96875 C 48.046875 17.132812 50.117188 12.863281 48.628906 11.371094 C 47.136719 9.882812 42.867188 11.953125 41.03125 10.890625 C 39.21875 9.84375 38.886719 5.101562 36.820312 4.550781 C 34.820312 4.015625 32.167969 7.941406 30 7.941406 C 27.832031 7.941406 25.179688 4.015625 23.183594 4.550781 C 21.113281 5.101562 20.78125 9.84375 18.96875 10.890625 C 17.132812 11.953125 12.863281 9.882812 11.375 11.371094 C 9.882812 12.863281 11.953125 17.132812 10.890625 18.96875 C 9.84375 20.78125 5.101562 21.113281 4.550781 23.179688 C 4.015625 25.179688 7.941406 27.832031 7.941406 30 C 7.941406 32.167969 4.015625 34.820312 4.550781 36.816406 C 5.101562 38.886719 9.84375 39.21875 10.890625 41.03125 C 11.953125 42.867188 9.882812 47.136719 11.375 48.625 C 12.863281 50.117188 17.132812 48.046875 18.972656 49.109375 C 20.78125 50.15625 21.113281 54.898438 23.183594 55.449219 C 25.179688 55.984375 27.832031 52.058594 30 52.058594 C 32.167969 52.058594 34.820312 55.984375 36.820312 55.449219 C 38.886719 54.898438 39.21875 50.15625 41.03125 49.109375 C 42.867188 48.046875 47.136719 50.117188 48.628906 48.625 C 50.117188 47.136719 48.046875 42.867188 49.109375 41.027344 C 50.15625 39.21875 54.898438 38.886719 55.449219 36.816406 C 55.984375 34.820312 52.058594 32.167969 52.058594 30 Z M 52.058594 30 "/>
</g>
</defs>
<g id="surface1">
<use xlink:href="#surface5" mask="url(#mask0)"/>
<path style=" stroke:none;fill-rule:nonzero;fill:rgb(100%,74.509804%,33.333333%);fill-opacity:1;" d="M 47.03125 30 C 47.03125 38.601562 40.652344 45.714844 32.367188 46.867188 C 31.582031 46.976562 30.792969 47.03125 30 47.03125 C 20.59375 47.03125 12.96875 39.40625 12.96875 30 C 12.96875 20.59375 20.59375 12.96875 30 12.96875 C 30.804688 12.96875 31.59375 13.027344 32.367188 13.132812 C 40.652344 14.285156 47.03125 21.398438 47.03125 30 Z M 47.03125 30 "/>
</g>
</svg>
